# xmcd
#
# Track frame offsets: 
#        150
#        14414
#        31457
#        46671
#        66992
#        87331
#        106550
#        133219
#        145976
#        171173
#        193852
#        213512
#
# Disc length: 3044 seconds
#
# Revision: 0
# Processed by: cddbd v1.5.2PL0 Copyright (c) Steve Scherf et al.
# Submitted via: ExactAudioCopy v0.99pb5
#
DISCID=ab0be20c
DTITLE=Acme Blues Company - I Think I Made It
DYEAR=2006
DGENRE=Blues
TTITLE0=Is Worth The Cost
TTITLE1=Expect My Own
TTITLE2=Sugar Mama
TTITLE3=Easy Money
TTITLE4=I Think I Made It
TTITLE5=Hey Baby
TTITLE6=You Ain't The First (Live)
TTITLE7=A Little Somethin' Somethin'
TTITLE8=No Shortage Of The Blues
TTITLE9=Liquor Store
TTITLE10=I'm What You Need
TTITLE11=Comin' And Goin'
EXTD=
EXTT0=
EXTT1=
EXTT2=
EXTT3=
EXTT4=
EXTT5=
EXTT6=
EXTT7=
EXTT8=
EXTT9=
EXTT10=
EXTT11=
PLAYORDER=
